{"title":"Bone.Tomahawk.2015.BRRip.480p.x264.AAC-VYTO [P2PDL]","uid":12918417,"size":480959823,"categoryP":"video","categoryS":"movies","magnet":"?xt=urn:btih:5aa4bfd17b2e1afa53dcad04728a87872535c8e5&amp;dn=Bone.Tomahawk.2015.BRRip.480p.x264.AAC-VYTO+%5BP2PDL%5D&amp;tr=udp%3A%2F%2Ftracker.leechers-paradise.org%3A6969&amp;tr=udp%3A%2F%2Fzer0day.ch%3A1337&amp;tr=udp%3A%2F%2Fopen.demonii.com%3A1337&amp;tr=udp%3A%2F%2Ftracker.coppersurfer.tk%3A6969&amp;tr=udp%3A%2F%2Fexodus.desync.com%3A6969","seeders":1,"leechers":2,"uploader":"VYTOP2PDL","files":7,"time":1449386497,"description":"____    ____ ____    ____ .___________.  ______   \r\n     /   /      /   / |           | /  __    \r\n    /   /      /   /  `---|  |----`|  |  |  | \r\n        /     _    _/       |  |     |  |  |  | \r\n       /        |  |         |  |     |  `--'  | \r\n    __/         |__|         |__|      ______/  \r\n                                                  \r\nPresenting Small Encodes with quality for years!\r\n                                                                                                   \r\n                                                                                                   \r\n\r\nBone.Tomahawk.2015.BRRip.480p.x264.AAC-VYTO\r\n\r\n\r\nGenre: Horror, Western  \nhttp://www.imdb.com/title/tt2494362/\r\n\r\n\r\nGeneral\r\nFormat                         : MPEG-4\r\nFile size                      : 452 MiB\r\nDuration                       : 2h 12mn\r\nOverall bit rate mode          : Variable\r\nOverall bit rate               : 478 Kbps\r\n\r\nVideo\r\nFormat                         : AVC\r\nBit rate                       : 443 Kbps\r\nWidth                          : 720 pixels\r\nHeight                         : 304 pixels\r\nDisplay aspect ratio           : 2.35:1\r\nFrame rate mode                : Constant\r\nFrame rate                     : 23.976 fps\r\nBit depth                      : 8 bits\r\nStream size                    : 418 MiB (93%)\r\nWriting library                : x264\r\n\r\nAudio\r\nFormat                         : AAC\r\nBit rate mode                  : Variable\r\nBit rate                       : 31.9 Kbps\r\nChannel(s)                     : 2 channels\r\nChannel positions              : Front: L R \r\nSampling rate                  : 48.0 KHz\r\nStream size                    : 30.2 MiB (7%)\r\nLanguage                       : English\r\n\r\nSubtitle                       : Yes (English)\r\n\r\nScreenshots:\r\n \nhttp://ititli.com/7d \nhttp://ititli.com/70 \nhttp://ititli.com/7A \nhttp://ititli.com/7l \nhttp://ititli.com/7m \nhttp://ititli.com/7x \nhttp://ititli.com/77 \nhttp://ititli.com/7C \nhttp://ititli.com/7F\r\n----------------------------------------------------------------------------------------------------\r\n\r\n\r\nEncoder Notes: Looking For Early Access To Anything You Can Provide WEBDL, DVDScr, DVDR, BluRay,\r\nDirect Audio, Music Releases and Seedboxes. If You Got anything to offer please contact us.\r\n\r\nSupport us by donating BC - 1FgwdzPsd1y25Gea8wP1qni35uGCtmkRCD\r\n\r\nSend some love!\r\nFind us! Join us!","torrent":{"xt":"urn:btih:5aa4bfd17b2e1afa53dcad04728a87872535c8e5","amp;dn":"Bone.Tomahawk.2015.BRRip.480p.x264.AAC-VYTO+%5BP2PDL%5D","amp;tr":["udp%3A%2F%2Ftracker.leechers-paradise.org%3A6969","udp%3A%2F%2Fzer0day.ch%3A1337","udp%3A%2F%2Fopen.demonii.com%3A1337","udp%3A%2F%2Ftracker.coppersurfer.tk%3A6969","udp%3A%2F%2Fexodus.desync.com%3A6969"],"infoHash":"5aa4bfd17b2e1afa53dcad04728a87872535c8e5","infoHashBuffer":{"type":"Buffer","data":[90,164,191,209,123,46,26,250,83,220,173,4,114,138,135,135,37,53,200,229]},"announce":[],"urlList":[]}}